<svg width="19" height="19" viewBox="0 0 19 19" fill="none" xmlns="http://www.w3.org/2000/svg">
<g clip-path="url(#clip0_519_8849)">
<path d="M13.8042 8.31219C12.0038 8.31219 10.5387 9.77722 10.5387 11.5777C10.5387 13.3782 12.0038 14.8432 13.8042 14.8432C15.6047 14.8432 17.0697 13.3782 17.0697 11.5777C17.0697 9.77722 15.6047 8.31219 13.8042 8.31219ZM15.1887 11.0537C14.2395 12.4778 14.5087 12.0741 14.0013 12.8349C13.8191 13.1083 13.4501 13.1808 13.1779 12.9993L12.2873 12.4056C12.0145 12.2237 11.9411 11.8553 12.1229 11.5821C12.3047 11.3094 12.6732 11.2359 12.9463 11.4178L13.3426 11.682C14.2895 10.2618 14.2386 10.3011 14.398 10.2103C14.9387 9.89744 15.5363 10.5318 15.1887 11.0537ZM11.1325 15.1378V18.4056C11.1325 18.8605 11.6252 19.1472 12.0208 18.921L13.8042 17.902L15.5877 18.921C15.9817 19.1468 16.476 18.8617 16.476 18.4056V15.1378C14.8942 16.328 12.7166 16.3297 11.1325 15.1378ZM14.9917 7.28578V1.2895C14.9917 0.578514 14.4132 0 13.7022 0H3.21919C2.5082 0 1.92969 0.578514 1.92969 1.2895V15.038C1.92969 15.749 2.5082 16.3275 3.21919 16.3275H9.94501C9.94501 13.7725 9.94104 13.9307 9.95429 13.8131C7.96671 10.4056 11.1316 6.21381 14.9917 7.28578ZM5.49206 2.96864H10.5387C10.8668 2.96864 11.1325 3.23433 11.1325 3.56237C11.1325 3.8904 10.8668 4.1561 10.5387 4.1561H5.49206C5.16402 4.1561 4.89833 3.8904 4.89833 3.56237C4.89833 3.23433 5.16402 2.96864 5.49206 2.96864ZM8.46069 8.90592H5.49206C5.16402 8.90592 4.89833 8.64023 4.89833 8.31219C4.89833 7.98416 5.16402 7.71846 5.49206 7.71846H8.46069C8.78873 7.71846 9.05442 7.98416 9.05442 8.31219C9.05442 8.64023 8.78873 8.90592 8.46069 8.90592ZM5.49206 6.53101C5.16402 6.53101 4.89833 6.26531 4.89833 5.93728C4.89833 5.60924 5.16402 5.34355 5.49206 5.34355H10.5387C10.8668 5.34355 11.1325 5.60924 11.1325 5.93728C11.1325 6.26531 10.8668 6.53101 10.5387 6.53101H5.49206Z" fill="#4CAF50"/>
</g>
<defs>
<clipPath id="clip0_519_8849">
<rect width="19" height="19" fill="white"/>
</clipPath>
</defs>
</svg>
