<svg width="17" height="17" viewBox="0 0 17 17" fill="none" xmlns="http://www.w3.org/2000/svg">
<path d="M5.04818 13.2129C5.04818 13.6124 4.92972 14.0029 4.70778 14.335C4.48585 14.6672 4.1704 14.926 3.80134 15.0789C3.43227 15.2318 3.02616 15.2718 2.63436 15.1939C2.24256 15.1159 1.88268 14.9236 1.6002 14.6411C1.31773 14.3586 1.12537 13.9987 1.04743 13.6069C0.969501 13.2151 1.0095 12.809 1.16237 12.44C1.31524 12.0709 1.57412 11.7554 1.90627 11.5335C2.23843 11.3116 2.62893 11.1931 3.0284 11.1931C3.56408 11.1931 4.07782 11.4059 4.4566 11.7847C4.83538 12.1635 5.04818 12.6772 5.04818 13.2129ZM15.1471 12.5396H7.06795C6.88939 12.5396 6.71815 12.6106 6.59189 12.7368C6.46563 12.8631 6.39469 13.0343 6.39469 13.2129C6.39469 13.3914 6.46563 13.5627 6.59189 13.689C6.71815 13.8152 6.88939 13.8861 7.06795 13.8861H15.1471C15.3256 13.8861 15.4969 13.8152 15.6231 13.689C15.7494 13.5627 15.8203 13.3914 15.8203 13.2129C15.8203 13.0343 15.7494 12.8631 15.6231 12.7368C15.4969 12.6106 15.3256 12.5396 15.1471 12.5396ZM11.1075 10.5199C11.5242 10.5187 11.9304 10.3887 12.2703 10.1476C12.6102 9.90652 12.8672 9.56622 13.0061 9.17334H15.1471C15.3256 9.17334 15.4969 9.10241 15.6231 8.97615C15.7494 8.84988 15.8203 8.67864 15.8203 8.50008C15.8203 8.32152 15.7494 8.15027 15.6231 8.02401C15.4969 7.89775 15.3256 7.82682 15.1471 7.82682H13.0061C12.8826 7.47748 12.6654 7.16885 12.3782 6.9347C12.091 6.70056 11.745 6.54992 11.3779 6.49927C11.0109 6.44862 10.6369 6.49992 10.2971 6.64755C9.95725 6.79518 9.66456 7.03345 9.45105 7.33629C9.23755 7.63913 9.11147 7.99486 9.08661 8.36455C9.06175 8.73425 9.13906 9.10366 9.31008 9.43236C9.48111 9.76106 9.73926 10.0364 10.0563 10.2282C10.3733 10.42 10.737 10.5209 11.1075 10.5199ZM1.68188 9.17334H7.06795C7.24651 9.17334 7.41776 9.10241 7.54402 8.97615C7.67028 8.84988 7.74121 8.67864 7.74121 8.50008C7.74121 8.32152 7.67028 8.15027 7.54402 8.02401C7.41776 7.89775 7.24651 7.82682 7.06795 7.82682H1.68188C1.50333 7.82682 1.33208 7.89775 1.20582 8.02401C1.07956 8.15027 1.00863 8.32152 1.00863 8.50008C1.00863 8.67864 1.07956 8.84988 1.20582 8.97615C1.33208 9.10241 1.50333 9.17334 1.68188 9.17334ZM9.76099 4.46053H15.1471C15.3256 4.46053 15.4969 4.3896 15.6231 4.26334C15.7494 4.13708 15.8203 3.96583 15.8203 3.78727C15.8203 3.60871 15.7494 3.43746 15.6231 3.3112C15.4969 3.18494 15.3256 3.11401 15.1471 3.11401H9.76099C9.58243 3.11401 9.41118 3.18494 9.28492 3.3112C9.15866 3.43746 9.08773 3.60871 9.08773 3.78727C9.08773 3.96583 9.15866 4.13708 9.28492 4.26334C9.41118 4.3896 9.58243 4.46053 9.76099 4.46053ZM1.68188 4.46053H3.82285C3.98167 4.90974 4.29417 5.28834 4.70514 5.52942C5.1161 5.77049 5.59906 5.85853 6.06866 5.77796C6.53825 5.69739 6.96425 5.4534 7.27135 5.08912C7.57845 4.72484 7.74688 4.26373 7.74688 3.78727C7.74688 3.31081 7.57845 2.8497 7.27135 2.48542C6.96425 2.12114 6.53825 1.87715 6.06866 1.79658C5.59906 1.71601 5.1161 1.80405 4.70514 2.04513C4.29417 2.2862 3.98167 2.6648 3.82285 3.11401H1.68188C1.50333 3.11401 1.33208 3.18494 1.20582 3.3112C1.07956 3.43746 1.00863 3.60871 1.00863 3.78727C1.00863 3.96583 1.07956 4.13708 1.20582 4.26334C1.33208 4.3896 1.50333 4.46053 1.68188 4.46053Z" fill="black"/>
</svg>
