<svg width="21" height="21" viewBox="0 0 21 21" fill="none" xmlns="http://www.w3.org/2000/svg">
<path d="M17.5268 6.75445L12.933 2.1607C12.8721 2.09978 12.7997 2.05147 12.72 2.01854C12.6403 1.9856 12.555 1.96868 12.4688 1.96875H4.59375C4.24565 1.96875 3.91181 2.10703 3.66567 2.35317C3.41953 2.59931 3.28125 2.93315 3.28125 3.28125V17.7188C3.28125 18.0668 3.41953 18.4007 3.66567 18.6468C3.91181 18.893 4.24565 19.0312 4.59375 19.0312H16.4062C16.7543 19.0312 17.0882 18.893 17.3343 18.6468C17.5805 18.4007 17.7188 18.0668 17.7188 17.7188V7.21875C17.7188 7.13254 17.7019 7.04717 17.669 6.9675C17.636 6.88784 17.5877 6.81544 17.5268 6.75445ZM12.4688 7.21875V3.60938L16.0781 7.21875H12.4688Z" fill="#363535"/>
</svg>
