<svg width="20" height="20" viewBox="0 0 20 20" fill="white" xmlns="http://www.w3.org/2000/svg">
<g clip-path="url(#clip0_385_820)">
<path d="M14.1404 2.49547C14.3589 2.27701 14.6182 2.10371 14.9037 1.98548C15.1891 1.86725 15.4951 1.8064 15.804 1.8064C16.113 1.8064 16.4189 1.86725 16.7043 1.98548C16.9898 2.10371 17.2491 2.27701 17.4676 2.49547C17.6861 2.71394 17.8593 2.97329 17.9776 3.25873C18.0958 3.54417 18.1567 3.8501 18.1567 4.15905C18.1567 4.46801 18.0958 4.77394 17.9776 5.05938C17.8593 5.34482 17.6861 5.60417 17.4676 5.82263L6.23842 17.0518L1.66357 18.2995L2.91126 13.7246L14.1404 2.49547Z" stroke="#2952FF" stroke-width="1.66358" stroke-linecap="round" stroke-linejoin="round"/>
</g>
<defs>
<clipPath id="clip0_385_820">
<rect width="19.963" height="19.963" fill="white"/>
</clipPath>
</defs>
</svg>
