<svg width="44" height="43" viewBox="0 0 44 43" fill="none" xmlns="http://www.w3.org/2000/svg">
<circle cx="21.5918" cy="21.5" r="21.5" fill="#0C0C75"/>
<path d="M16.9198 27.187C16.4891 27.187 16.0188 27.1587 15.5088 27.102C14.9988 27.0567 14.5001 27 14.0128 26.932C13.5368 26.8527 13.1288 26.7847 12.7888 26.728L12.9418 24.875C13.2931 24.9203 13.7011 24.9713 14.1658 25.028C14.6305 25.0733 15.0895 25.113 15.5428 25.147C16.0075 25.181 16.4098 25.198 16.7498 25.198C17.1805 25.198 17.5318 25.1413 17.8038 25.028C18.0758 24.9147 18.2741 24.7447 18.3988 24.518C18.5348 24.28 18.6028 23.9797 18.6028 23.617C18.6028 23.3223 18.5405 23.09 18.4158 22.92C18.3025 22.7387 18.0928 22.597 17.7868 22.495C17.4808 22.3817 17.0558 22.274 16.5118 22.172C15.8318 22.0473 15.2481 21.9 14.7608 21.73C14.2848 21.56 13.8938 21.3503 13.5878 21.101C13.2818 20.8403 13.0551 20.5117 12.9078 20.115C12.7718 19.7183 12.7038 19.2367 12.7038 18.67C12.7038 17.786 12.8681 17.0947 13.1968 16.596C13.5255 16.086 13.9958 15.7233 14.6078 15.508C15.2198 15.2927 15.9395 15.185 16.7668 15.185C17.1408 15.185 17.5658 15.2077 18.0418 15.253C18.5291 15.287 19.0051 15.3323 19.4698 15.389C19.9458 15.4457 20.3481 15.508 20.6768 15.576L20.5748 17.446C20.2348 17.4007 19.8381 17.361 19.3848 17.327C18.9428 17.2817 18.5008 17.242 18.0588 17.208C17.6281 17.174 17.2598 17.157 16.9538 17.157C16.5345 17.157 16.1831 17.2023 15.8998 17.293C15.6165 17.3837 15.4068 17.5253 15.2708 17.718C15.1348 17.9107 15.0668 18.1543 15.0668 18.449C15.0668 18.789 15.1348 19.0497 15.2708 19.231C15.4068 19.4123 15.6335 19.5597 15.9508 19.673C16.2795 19.7863 16.7271 19.9053 17.2938 20.03C17.9625 20.1773 18.5291 20.336 18.9938 20.506C19.4698 20.676 19.8495 20.88 20.1328 21.118C20.4275 21.356 20.6428 21.662 20.7788 22.036C20.9148 22.41 20.9828 22.8803 20.9828 23.447C20.9828 24.3537 20.8185 25.0847 20.4898 25.64C20.1725 26.184 19.7078 26.5807 19.0958 26.83C18.4951 27.068 17.7698 27.187 16.9198 27.187ZM21.6093 27L24.5673 15.389H28.6643L31.6053 27H29.2593L28.6133 24.654H24.5503L23.9383 27H21.6093ZM24.9243 22.767H28.2733L26.9643 17.293H26.2503L24.9243 22.767Z" fill="white"/>
</svg>
